<?xml version="1.0" standalone="no"?>
<!DOCTYPE svg PUBLIC "-//W3C//DTD SVG 20010904//EN"
 "http://www.w3.org/TR/2001/REC-SVG-20010904/DTD/svg10.dtd">
<svg version="1.0" xmlns="http://www.w3.org/2000/svg"
 width="1102.000000pt" height="1102.000000pt" viewBox="0 0 1102.000000 1102.000000"
 preserveAspectRatio="xMidYMid meet">
<metadata>
Created by potrace 1.11, written by Peter Selinger 2001-2013
</metadata>
<g transform="translate(0.000000,1102.000000) scale(0.100000,-0.100000)"
fill="#000000" stroke="none">
<path d="M2830 10487 c-3 -3 -21 -9 -39 -12 -41 -7 -130 -43 -152 -62 -8 -7
-19 -13 -24 -13 -19 0 -128 -127 -155 -181 -27 -53 -172 -469 -173 -496 0 -7
-4 -13 -9 -13 -5 0 -7 -4 -4 -8 3 -5 -1 -20 -8 -33 -7 -14 -13 -31 -13 -39 -1
-12 -100 -309 -120 -360 -3 -8 -7 -19 -8 -25 -6 -23 -67 -202 -77 -222 -6 -11
-8 -26 -4 -31 3 -6 2 -13 -4 -17 -10 -6 -55 -144 -52 -157 1 -5 -2 -8 -6 -8
-5 0 -14 -24 -21 -52 -8 -29 -16 -57 -20 -63 -3 -5 -6 -14 -8 -20 -8 -37 -13
-54 -27 -87 -9 -21 -14 -38 -11 -38 3 0 -3 -12 -12 -27 -10 -15 -17 -30 -16
-33 3 -7 -8 -52 -16 -65 -3 -5 -6 -14 -8 -20 -1 -5 -13 -44 -27 -85 -95 -279
-138 -407 -141 -421 -2 -8 -10 -31 -18 -51 -9 -20 -13 -39 -9 -42 3 -3 1 -6
-5 -6 -5 0 -10 -6 -11 -12 -1 -21 -9 -50 -37 -128 -14 -41 -28 -82 -30 -90 -2
-8 -25 -76 -50 -150 -26 -74 -48 -139 -49 -145 -2 -5 -6 -17 -9 -25 -3 -8 -51
-152 -107 -320 -55 -168 -104 -312 -107 -320 -3 -8 -7 -20 -9 -27 -4 -21 -26
-88 -33 -98 -3 -5 -6 -12 -6 -15 -2 -18 -30 -100 -35 -100 -3 0 -6 -8 -6 -17
0 -15 -180 -562 -202 -613 -3 -8 -7 -19 -7 -25 -1 -5 -5 -17 -8 -25 -20 -50
-55 -160 -50 -160 3 0 1 -6 -4 -12 -5 -7 -16 -33 -23 -58 -7 -25 -17 -49 -20
-55 -6 -9 -13 -30 -26 -80 -1 -5 -52 -157 -112 -337 -61 -179 -108 -329 -104
-332 3 -3 1 -6 -5 -6 -6 0 -14 -17 -18 -37 -4 -21 -11 -44 -17 -50 -6 -7 -7
-13 -3 -13 4 0 2 -7 -5 -15 -6 -8 -9 -19 -5 -25 3 -5 1 -10 -5 -10 -6 0 -9 -4
-5 -9 3 -5 1 -12 -5 -16 -5 -3 -10 -17 -10 -31 0 -13 -5 -24 -12 -24 -6 0 -9
-3 -5 -6 3 -3 1 -18 -5 -33 -5 -14 -11 -33 -13 -41 -2 -8 -24 -76 -50 -150
-26 -74 -49 -142 -50 -150 -2 -8 -20 -59 -39 -112 -19 -54 -32 -98 -29 -98 3
0 1 -6 -4 -12 -5 -7 -16 -33 -23 -58 -7 -25 -18 -51 -23 -57 -5 -7 -7 -13 -4
-13 3 0 -1 -16 -9 -35 -8 -19 -13 -38 -13 -42 1 -5 -4 -24 -12 -43 -7 -19 -12
-38 -11 -42 1 -5 -2 -8 -8 -8 -5 0 -7 -7 -4 -15 4 -8 1 -15 -7 -15 -7 0 -9 -3
-6 -7 4 -3 2 -12 -4 -20 -6 -7 -9 -13 -5 -13 3 0 0 -16 -8 -35 -8 -19 -13 -35
-10 -35 3 0 -1 -10 -8 -22 -6 -13 -13 -27 -14 -33 -3 -19 -57 -180 -63 -190
-3 -5 -6 -12 -7 -15 -2 -16 -37 -127 -42 -135 -4 -5 -7 -14 -8 -20 -1 -5 -7
-29 -12 -53 -13 -54 -8 -188 8 -238 26 -82 63 -144 118 -202 65 -68 121 -106
199 -133 107 -37 64 -36 1148 -25 1413 15 1357 14 1418 32 41 12 142 59 160
74 32 28 102 96 119 118 19 24 68 127 74 157 13 62 15 86 15 140 0 33 -2 70
-5 82 -13 49 -16 59 -28 93 -32 85 -127 204 -188 233 -8 4 -28 16 -45 26 -16
11 -38 20 -47 20 -10 1 -18 5 -18 9 0 5 -6 9 -12 9 -7 1 -40 5 -72 11 -56 9
-260 9 -1263 -2 -216 -2 -393 -1 -393 4 0 4 7 27 16 51 9 24 17 49 18 54 1 6
11 35 21 65 11 30 19 57 20 60 0 3 3 10 6 15 4 6 10 26 14 45 4 19 11 40 15
45 4 6 11 26 15 45 4 19 11 41 16 50 8 15 198 583 204 610 2 8 4 17 5 20 1 3
2 8 1 13 0 4 4 7 11 7 6 0 9 3 6 6 -3 3 3 29 14 57 10 29 21 61 24 72 2 11 51
160 109 330 58 171 107 317 109 325 3 8 30 89 61 180 31 91 58 176 61 190 3
13 10 30 16 37 6 7 7 13 4 13 -4 0 -2 9 4 21 6 11 13 28 15 37 2 9 36 114 75
232 83 250 78 233 76 241 0 3 5 13 13 22 7 10 11 17 8 17 -4 0 2 20 13 45 11
25 19 48 19 50 0 3 12 43 27 88 16 45 29 84 29 87 1 7 26 83 32 100 4 8 7 17
8 20 0 3 9 30 20 60 11 30 20 57 20 60 1 6 25 80 32 100 13 35 125 366 128
380 2 8 25 76 50 150 26 74 48 140 49 145 1 6 4 15 8 20 8 15 42 129 40 138
-1 4 2 7 6 7 5 0 9 6 10 13 2 24 8 47 15 53 4 4 7 17 7 29 0 11 5 26 10 31 6
6 13 23 16 39 3 15 9 36 14 45 5 10 6 20 3 24 -3 3 -2 6 4 6 5 0 10 6 10 13 0
10 172 528 177 534 2 2 18 -43 36 -100 19 -56 38 -108 43 -114 5 -7 7 -13 4
-13 -3 0 3 -26 14 -57 11 -32 22 -62 23 -68 4 -17 87 -269 96 -290 7 -17 220
-664 227 -690 1 -5 16 -50 33 -100 16 -49 30 -95 30 -102 0 -7 4 -13 8 -13 5
0 9 -6 9 -12 0 -7 53 -173 118 -368 64 -195 119 -362 120 -370 2 -8 4 -16 5
-17 2 -2 3 -6 5 -10 1 -5 5 -17 9 -28 4 -11 12 -31 16 -45 4 -14 12 -34 16
-45 4 -11 6 -26 5 -32 -1 -7 3 -13 10 -13 6 0 9 -6 6 -14 -3 -7 -1 -18 3 -22
5 -5 11 -19 13 -31 2 -13 6 -26 10 -29 4 -4 7 -13 7 -20 0 -7 5 -25 12 -41 6
-15 12 -34 14 -41 1 -8 23 -75 48 -150 165 -490 197 -589 201 -602 4 -19 83
-260 92 -280 3 -8 7 -20 8 -26 2 -6 58 -177 125 -380 67 -203 123 -373 125
-379 2 -10 11 -35 25 -70 4 -11 23 -67 41 -125 18 -58 37 -107 41 -108 5 -2 6
-8 3 -12 -3 -5 1 -24 8 -42 8 -18 15 -37 17 -43 1 -5 4 -14 6 -20 1 -5 14 -46
28 -90 14 -44 43 -132 64 -195 22 -63 72 -214 111 -335 40 -121 75 -227 79
-235 3 -8 7 -22 8 -30 3 -15 80 -248 94 -285 15 -38 23 -60 25 -71 3 -13 80
-245 117 -354 17 -47 31 -93 33 -102 2 -9 8 -25 13 -35 6 -10 10 -21 11 -25 1
-5 1 -9 2 -10 0 -2 2 -14 5 -27 2 -14 9 -30 15 -38 6 -7 9 -13 6 -13 -3 0 1
-16 9 -35 8 -19 14 -36 13 -37 0 -2 4 -16 10 -31 6 -16 11 -34 11 -41 0 -7 3
-16 7 -20 4 -3 8 -12 9 -19 5 -32 169 -512 201 -587 56 -131 104 -198 183
-251 19 -12 37 -26 40 -29 9 -11 85 -41 140 -55 48 -13 261 -14 1600 -9 850 3
1552 5 1560 5 19 -1 49 -1 383 2 147 1 267 -2 267 -6 0 -5 5 -5 12 -1 7 4 231
8 498 9 439 1 493 3 558 20 40 10 72 22 72 27 0 4 7 8 16 8 21 0 100 56 146
105 185 194 178 509 -15 697 -34 33 -78 67 -97 75 -19 9 -41 21 -48 27 -8 5
-21 11 -30 13 -10 1 -46 8 -82 16 -53 11 -241 13 -994 11 -510 -2 -930 -5
-932 -7 -2 -2 -26 -1 -54 3 -28 4 -52 5 -54 3 -7 -8 -476 -8 -476 -1 0 4 -10
4 -22 0 -13 -4 -39 -7 -58 -6 -19 1 -46 2 -60 3 -14 1 -80 0 -147 -1 -68 -2
-123 0 -123 5 0 4 -6 5 -12 0 -19 -12 -82 -11 -90 2 -5 6 -8 6 -8 0 0 -12
-318 -14 -336 -3 -6 4 -14 4 -18 0 -4 -3 -228 -8 -497 -9 l-490 -3 -12 33 c-6
17 -10 35 -9 40 1 4 -2 7 -6 7 -4 0 -8 9 -9 20 -1 12 -12 46 -23 78 -12 31
-23 62 -24 67 -4 17 -27 89 -36 110 -5 11 -22 65 -39 120 -17 55 -35 109 -40
120 -5 11 -28 81 -52 155 -23 74 -45 140 -48 145 -3 6 -7 18 -8 28 -2 10 -10
31 -18 46 -8 16 -11 31 -8 34 3 4 1 13 -5 20 -7 7 -14 24 -16 38 -3 13 -5 25
-7 27 -1 1 -2 5 -4 10 -1 4 -4 14 -8 22 -9 25 -41 125 -42 132 0 3 -3 10 -7
14 -5 4 -8 16 -8 26 0 10 -4 26 -9 36 -8 17 -30 78 -35 97 -3 13 -36 116 -43
135 -3 8 -7 20 -8 25 -2 6 -38 113 -80 240 -42 126 -79 236 -81 245 -3 12 -38
118 -60 180 -3 8 -5 16 -5 17 0 2 -7 22 -15 45 -9 24 -17 48 -18 53 -3 15
-106 327 -116 350 -4 11 -22 65 -40 120 -17 55 -34 107 -37 115 -4 8 -7 17 -8
20 -4 15 -67 207 -72 220 -3 8 -8 25 -10 37 -2 12 -10 34 -18 49 -8 15 -12 31
-9 36 3 4 0 8 -5 8 -6 0 -10 3 -9 8 3 7 -60 210 -71 227 -3 6 -7 21 -9 34 -2
13 -10 37 -18 53 -8 15 -12 28 -9 28 3 0 -1 14 -10 30 -9 17 -13 30 -9 30 4 0
2 6 -4 13 -6 6 -10 15 -10 20 -1 4 -31 98 -68 210 -37 111 -67 208 -67 215 0
6 -5 12 -10 12 -5 0 -7 6 -4 14 3 7 2 17 -3 22 -6 7 -46 122 -55 159 -1 6 -5
17 -8 25 -3 8 -60 182 -127 385 -67 204 -125 379 -130 390 -9 22 -50 148 -54
168 -3 13 -13 40 -26 72 -5 11 -11 34 -15 50 -4 17 -12 44 -19 60 -15 34 -310
924 -312 940 0 6 -4 17 -7 25 -4 8 -54 161 -113 340 -58 179 -110 334 -115
345 -7 18 -71 210 -75 228 -1 4 -3 9 -4 12 -1 3 -3 8 -4 13 -3 11 -107 325
-113 342 -4 8 -8 22 -9 30 -2 8 -41 126 -87 263 -46 136 -82 247 -79 247 2 0
0 6 -6 13 -6 7 -13 24 -16 37 -5 26 -49 155 -68 200 -26 61 -84 167 -101 185
-7 7 -21 23 -33 36 -80 90 -205 147 -344 156 -47 3 -87 3 -90 0z"/>
</g>
</svg>
